<svg height="120" viewBox="0 -25 512 511" width="420pt" xmlns="http://www.w3.org/2000/svg" style="fill: rgb(240, 151, 34); height: 62px;">
    <path d="m107.074219 314.71875c-15.71875 61.949219-12.925781 115.023438 21.425781 134.855469 14.765625 8.507812 31.132812 8.902343 48.105469 4.082031 5.261719 4.554688 11.90625 7.578125 19.394531 7.578125 16.539062 0 30-13.460937 30-30 0-1.363281-.601562-2.535156-.78125-3.855469 10.417969-7.964844 20.71875-17.085937 30.777344-27.070312 42.566406 42.25 90.046875 70.882812 127.503906 49.265625 34.351562-19.832031 37.144531-72.90625 21.425781-134.851563 16.390625-4.625 32.5625-10.050781 46.011719-16.316406 4.714844 3.085938 10.023438 5.328125 16.0625 5.328125 16.539062 0 30-13.460937 30-30 0-2.265625-.816406-4.273437-1.296875-6.398437 10.257813-11.484376 16.296875-24.308594 16.296875-38.601563 0-39.667969-45.5625-68.621094-107.074219-85.980469 15.71875-61.949218 12.925781-115.023437-21.425781-134.855468-37.472656-21.640626-84.960938 7.03125-127.503906 49.269531-7.542969-7.492188-15.195313-14.660157-22.96875-21.089844.066406-.8125.472656-1.511719.472656-2.339844 0-16.539062-13.460938-30-30-30-5.375 0-10.15625 1.804688-14.523438 4.289063-21.386718-9.164063-42.140624-10.746094-60.476562-.128906-34.351562 19.832031-37.144531 72.90625-21.425781 134.855468-61.511719 17.355469-107.074219 46.3125-107.074219 85.980469s45.5625 68.625 107.074219 85.984375zm100.769531 89c-3.644531-1.574219-7.632812-2.484375-11.84375-2.484375-14.695312 0-26.394531 10.828125-28.945312 24.804687-8.652344 1.910157-16.675782 1.539063-23.554688-2.449218-17.746094-10.242188-20.484375-49.199219-7.246094-101.75 19.53125 4.074218 40.140625 7.089844 61.222656 9.0625 11.417969 15.859375 24.207032 32.167968 37.910157 47.65625-9.171875 9.382812-18.421875 17.878906-27.542969 25.160156zm148.671875-210.164062c-3.121094-5.820313-6.289063-11.621094-9.578125-17.320313-3.050781-5.28125-6.574219-11.03125-10.316406-16.96875 10.660156 1.492187 20.964844 3.199219 30.707031 5.199219-3.132813 9.40625-6.789063 19.148437-10.8125 29.089844zm10.808594 99.453124c-9.738281 2-20.035157 3.707032-30.695313 5.195313 3.730469-5.921875 7.242188-11.664063 10.308594-16.96875 3.289062-5.695313 6.457031-11.496094 9.578125-17.316406 4.023437 9.941406 7.679687 19.683593 10.808594 29.089843zm-26.484375-64.273437c-6.011719 12.328125-12.582032 24.847656-19.890625 37.5-5.742188 9.953125-13.75 22.449219-23.222657 36.011719-13.472656.925781-27.359374 1.488281-41.726562 1.488281-14.363281 0-28.242188-.558594-41.707031-1.484375-9.277344-13.257812-17.289063-25.695312-23.242188-36.015625-7.308593-12.652344-13.878906-25.171875-19.890625-37.5 6.011719-12.324219 12.582032-24.84375 19.890625-37.5 5.742188-9.949219 13.75-22.445313 23.222657-36.007813 13.46875-.925781 27.355468-1.492187 41.726562-1.492187 14.363281 0 28.242188.5625 41.707031 1.488281 9.425781 13.476563 17.441407 25.960938 23.242188 36.011719 7.308593 12.65625 13.878906 25.175781 19.890625 37.5zm-175.777344-52.5c-3.289062 5.699219-6.457031 11.5-9.578125 17.320313-4.023437-9.941407-7.679687-19.683594-10.808594-29.09375 9.738281-2 20.039063-3.703126 30.695313-5.195313-3.734375 5.929687-7.25 11.671875-10.308594 16.96875zm-9.578125 87.683594c3.121094 5.820312 6.289063 11.621093 9.578125 17.316406 3.0625 5.308594 6.582031 11.046875 10.308594 16.96875-10.65625-1.488281-20.957032-3.195313-30.695313-5.195313 3.128907-9.40625 6.785157-19.148437 10.808594-29.089843zm100.621094 91.984375c-6.410157-7.386719-12.695313-14.910156-18.6875-22.511719 6.199219.183594 12.402343.34375 18.582031.34375 6.207031 0 12.4375-.160156 18.664062-.34375-5.9375 7.574219-12.179687 15.109375-18.558593 22.511719zm112.394531 67.6875c-22.640625 13.132812-57.820312-10.691406-91.742188-45.199219 13.652344-15.4375 26.386719-31.691406 37.765626-47.488281 21.082031-1.972656 41.6875-4.988282 61.222656-9.0625 13.238281 52.550781 10.5 91.507812-7.246094 101.75zm28.007812-252.003906c52.125 14.808593 85.492188 36.65625 85.492188 57.148437 0 5.5-2.574219 11.09375-6.972656 16.628906-2.609375-.746093-5.179688-1.628906-8.027344-1.628906-15.722656 0-28.292969 12.289063-29.53125 27.695313-11.472656 5.28125-25.847656 10.164062-40.960938 14.457031-6.199218-18.824219-13.824218-38.039063-22.582031-57.152344 8.757813-19.109375 16.382813-38.328125 22.582031-57.148437zm-28.007812-137.703126c17.746094 10.242188 20.484375 49.199219 7.246094 101.746094-19.542969-4.074218-40.160156-7.089844-61.25-9.0625-11.394532-15.816406-24.179688-32.121094-37.898438-47.632812 33.632813-34.40625 68.773438-58.441406 91.902344-45.050782zm-112.554688 67.628907c6.410157 7.417969 12.695313 14.96875 18.671876 22.570312-6.210938-.183593-12.425782-.347656-18.617188-.347656-6.207031 0-12.4375.164063-18.664062.347656 5.953124-7.59375 12.214843-15.152343 18.609374-22.570312zm-112.445312-67.628907c8.558594-4.957031 18.847656-4.628906 30.097656-.625-.003906.167969-.097656.308594-.097656.476563 0 16.539063 13.460938 30 30 30 4.519531 0 8.703125-1.164063 12.550781-2.960937 6.417969 5.601562 12.859375 11.683593 19.269531 18.226562-13.683593 15.472656-26.445312 31.753906-37.835937 47.566406-21.085937 1.976563-41.695313 4.992188-61.230469 9.0625-13.238281-52.546875-10.5-91.503906 7.246094-101.746094zm-28.007812 137.703126c6.199218 18.820312 13.824218 38.039062 22.582031 57.148437-8.753907 19.113281-16.382813 38.328125-22.582031 57.152344-52.125-14.8125-85.492188-36.65625-85.492188-57.152344 0-20.492187 33.367188-42.339844 85.492188-57.148437zm0 0"></path>
    <path d="m256 183.734375c-24.8125 0-45 20.1875-45 45 0 24.816406 20.1875 45 45 45s45-20.183594 45-45c0-24.8125-20.1875-45-45-45zm0 0"></path>
    
</svg>